<svg width="24" height="24" viewBox="0 0 24 24" fill="none" xmlns="http://www.w3.org/2000/svg">
<path fill-rule="evenodd" clip-rule="evenodd" d="M16.1923 12.7117C16.0758 12.4322 15.8027 12.2502 15.5 12.2502C15.1972 12.2502 14.9241 12.4322 14.8076 12.7117L12.3076 18.7117C12.1483 19.094 12.3291 19.5331 12.7115 19.6925C13.0938 19.8518 13.5329 19.671 13.6923 19.2886L14.3333 17.7502H16.6666L17.3076 19.2886C17.467 19.671 17.9061 19.8518 18.2884 19.6925C18.6708 19.5331 18.8516 19.094 18.6923 18.7117L16.1923 12.7117ZM15.5 14.9502L16.0416 16.2502H14.9583L15.5 14.9502Z" fill="#161616"/>
<path d="M8.15 4.25015C8.56421 4.25015 8.9 4.58594 8.9 5.00015V5.21567H12C12.4142 5.21567 12.75 5.55146 12.75 5.96567C12.75 6.37988 12.4142 6.71567 12 6.71567H10.7973C10.4274 7.74679 9.85464 8.71134 9.21395 9.57743L10.1155 10.5147C10.4027 10.8132 10.3935 11.288 10.0949 11.5752C9.79642 11.8623 9.32163 11.8531 9.03448 11.5546L8.26126 10.7507C7.65985 11.4318 7.04053 12.0392 6.48266 12.5522C6.17775 12.8326 5.7033 12.8127 5.42293 12.5078C5.14256 12.2029 5.16244 11.7284 5.46735 11.4481C6.0382 10.9232 6.66238 10.3073 7.2537 9.62429C7.12848 9.46336 7.00289 9.29604 6.88542 9.13314C6.64973 8.8063 6.40843 8.44502 6.28521 8.18062C6.11023 7.80518 6.27273 7.35898 6.64817 7.184C7.02361 7.00902 7.46981 7.17152 7.64479 7.54696C7.70157 7.66877 7.86527 7.92739 8.10208 8.2558C8.13755 8.30499 8.1738 8.35456 8.21052 8.40415C8.59222 7.85913 8.92551 7.2933 9.18194 6.71567H5C4.58579 6.71567 4.25 6.37988 4.25 5.96567C4.25 5.55146 4.58579 5.21567 5 5.21567H7.4V5.00015C7.4 4.58594 7.73579 4.25015 8.15 4.25015Z" fill="#161616"/>
<path fill-rule="evenodd" clip-rule="evenodd" d="M9.45109 1.25015H9.54891C11.1512 1.25014 12.4205 1.25013 13.4248 1.36883C14.4557 1.4907 15.3044 1.74654 16.0134 2.32835C16.2539 2.52574 16.4744 2.74627 16.6718 2.98679C17.3772 3.84635 17.6099 4.92358 17.6958 6.30438C19.0763 6.39023 20.1536 6.62273 21.0134 7.32835C21.2539 7.52574 21.4744 7.74627 21.6718 7.98679C22.2536 8.69573 22.5095 9.54443 22.6313 10.5754C22.75 11.5796 22.75 12.8489 22.75 14.4512V14.549C22.75 16.1513 22.75 17.4207 22.6313 18.4249C22.5095 19.4559 22.2536 20.3046 21.6718 21.0135C21.4744 21.254 21.2539 21.4746 21.0134 21.672C20.3044 22.2538 19.4557 22.5096 18.4248 22.6315C17.4205 22.7502 16.1512 22.7502 14.549 22.7502H14.4511C12.8489 22.7502 11.5795 22.7502 10.5752 22.6315C9.54428 22.5096 8.69558 22.2538 7.98663 21.672C7.74612 21.4746 7.52558 21.254 7.3282 21.0135C6.62278 20.154 6.39007 19.0767 6.30421 17.6959C4.92341 17.6101 3.8462 17.3774 2.98663 16.672C2.74612 16.4746 2.52558 16.254 2.3282 16.0135C1.74638 15.3046 1.49055 14.4559 1.36868 13.4249C1.24998 12.4207 1.24999 11.1513 1.25 9.54906V9.45124C1.24999 7.84898 1.24998 6.57962 1.36868 5.5754C1.49055 4.54443 1.74638 3.69573 2.3282 2.98679C2.52558 2.74627 2.74612 2.52574 2.98663 2.32835C3.69558 1.74654 4.54428 1.4907 5.57525 1.36883C6.57947 1.25013 7.84883 1.25014 9.45109 1.25015ZM7.78429 17.2771C7.8525 18.7784 8.04964 19.5281 8.48772 20.0619C8.62277 20.2265 8.77366 20.3774 8.93822 20.5124C9.33563 20.8386 9.86197 21.0367 10.7513 21.1418C11.6572 21.2489 12.8379 21.2502 14.5 21.2502C16.1621 21.2502 17.3428 21.2489 18.2487 21.1418C19.138 21.0367 19.6644 20.8386 20.0618 20.5124C20.2263 20.3774 20.3772 20.2265 20.5123 20.0619C20.8384 19.6645 21.0366 19.1382 21.1417 18.2488C21.2488 17.3429 21.25 16.1623 21.25 14.5002C21.25 12.838 21.2488 11.6574 21.1417 10.7515C21.0366 9.86213 20.8384 9.33578 20.5123 8.93837C20.3772 8.77381 20.2263 8.62292 20.0618 8.48787C19.5307 8.05204 18.7855 7.85446 17.2979 7.7854L7.78429 17.2771ZM16.2167 6.74524C16.1494 5.22925 15.9525 4.47478 15.5123 3.93838C15.3772 3.77381 15.2263 3.62292 15.0618 3.48787C14.6644 3.16173 14.138 2.96359 13.2487 2.85846C12.3428 2.75138 11.1621 2.75015 9.5 2.75015C7.83789 2.75015 6.65724 2.75138 5.75133 2.85846C4.86197 2.96359 4.33563 3.16173 3.93822 3.48787C3.77366 3.62292 3.62277 3.77381 3.48772 3.93838C3.16158 4.33578 2.96344 4.86212 2.85831 5.75148C2.75123 6.6574 2.75 7.83804 2.75 9.50015C2.75 11.1623 2.75123 12.3429 2.85831 13.2488C2.96344 14.1382 3.16158 14.6645 3.48772 15.0619C3.62277 15.2265 3.77366 15.3774 3.93822 15.5124C4.47215 15.9506 5.22213 16.1477 6.72412 16.2159L16.2167 6.74524Z" fill="#161616"/>
</svg>
