<svg xmlns="http://www.w3.org/2000/svg" width="215.661" height="64.999" viewBox="0 0 215.661 64.999">
  <g id="Group_118413" data-name="Group 118413" transform="translate(-2409.025 1663.617)">
    <g id="Group_118409" data-name="Group 118409">
      <path id="Path_41543" data-name="Path 41543" d="M111.046,57.422H178.21c38.193,0,69.153.448,69.153,1s-30.961,1-69.153,1H111.046Z" transform="translate(2377.323 -1680.01)" fill="#0051AB"/>
      <path id="Path_41544" data-name="Path 41544" d="M113.029,66.354a.551.551,0,0,0,0-1.1.551.551,0,0,0,0,1.1" transform="translate(2376.914 -1682.246)" fill="#0051AB"/>
      <path id="Path_41545" data-name="Path 41545" d="M115.135,66.354a.551.551,0,1,0-.55-.55.538.538,0,0,0,.55.55" transform="translate(2376.313 -1682.246)" fill="#0051AB"/>
      <path id="Path_41546" data-name="Path 41546" d="M121.307,75.87a.545.545,0,1,0,0,1.09.545.545,0,1,0,0-1.09" transform="translate(2374.551 -1685.277)" fill="#0051AB"/>
      <path id="Path_41547" data-name="Path 41547" d="M119.2,75.87a.545.545,0,1,0,0,1.09.545.545,0,0,0,.551-.551.54.54,0,0,0-.551-.539" transform="translate(2375.152 -1685.277)" fill="#0051AB"/>
      <path id="Path_41548" data-name="Path 41548" d="M117.858,68.218l.066.021c.458.146.458.217.458.454v2.539c0,.645-.259.976-.767.986H115.8c-.435-.036-.527-.465-.527-.818V68.693a3.338,3.338,0,0,1,.073-.759l0-.021H114.8l-.005,0a.2.2,0,0,0-.065.125.382.382,0,0,1-.011.039,1.3,1.3,0,0,1-.1.245l-.168-.108,0,0a2.165,2.165,0,0,0-1.238-.417,2.272,2.272,0,0,0-2.159,2.4,2.237,2.237,0,0,0,1.939,2.441,1.608,1.608,0,0,0,1.5-1.015c.039.917.667,1.005,1.311,1.015h2a1.354,1.354,0,0,0,1.532-1.375V67.94l-1.4.265Zm-3.624,3.1a1.213,1.213,0,0,1-1.112.928c-.405,0-1.09-.419-1.09-1.988,0-1.522.633-2.062,1.174-2.062a.952.952,0,0,1,.957.6,3.337,3.337,0,0,1,.186,1.266,4.569,4.569,0,0,1-.114,1.259" transform="translate(2377.323 -1682.972)" fill="#0051AB"/>
      <path id="Path_41549" data-name="Path 41549" d="M126.371,68.017h-.021a1.279,1.279,0,0,0-.964.518c-.461.525-.642.569-.887.579h-.021l.2.874.022-.032c.566-.816,1.142-1.571,1.522-1.571.545,0,.651.962.651,2.626v1.268h-3.06l.347.415.005.006h3.768v-.289c0-1.314-.152-4.373-1.564-4.4" transform="translate(2373.678 -1683.035)" fill="#0051AB"/>
      <path id="Path_41550" data-name="Path 41550" d="M152.225,65.453l.066.021c.447.142.447.206.447.443v4.566c0,.654-.272.986-.807.986h-.248v.011h-.118c-.578,0-1.007-.614-1.132-1.216V67.2l-1.445.278.064.021c.436.142.436.206.436.444v2.581c0,.654-.271.985-.807.985-.688,0-1.111-.951-1.111-1.633v-2.3l-1.475.277.063.021c.458.156.458.194.458.4v2.246c0,.654-.275.985-.818.985-.6,0-1.012-.735-1.09-1.424V67.954l-1.4.255-.067.011.065.022c.457.152.457.187.457.412v1.828c0,.654-.268.986-.8.986h-2.748a.831.831,0,0,1-.585-.157,6.324,6.324,0,0,0,1.3-.872,1.75,1.75,0,0,0,.642-1.295c0-1.134-.877-1.867-2.233-1.867a4.909,4.909,0,0,0-2.381.787.812.812,0,0,0-.1.071.363.363,0,0,1-.031.024l-.018.012.015.015c.025.025.1.133.172.229l.084.113a8.361,8.361,0,0,1,.67.97,7.4,7.4,0,0,0,1.045,1.764,2.869,2.869,0,0,1-.987.207h-2.854a15.213,15.213,0,0,0,.071-1.655V67.237h-.812a3.1,3.1,0,0,0-2.2.817,2.949,2.949,0,0,0-.865,2.189,1.68,1.68,0,0,0,1.616,1.648h1.179a2.47,2.47,0,0,1-2.081,1.794l-.388.064.139.012c.394.032.715.051.857.051a2.47,2.47,0,0,0,1.348-.337,2.55,2.55,0,0,0,1.038-1.586h3.2a2.056,2.056,0,0,0,1.112-.267l.01,0a1.87,1.87,0,0,0,1.187.262h2.811a1.5,1.5,0,0,0,1.414-.7,1.626,1.626,0,0,0,1.449.705,1.546,1.546,0,0,0,1.446-.856,1.551,1.551,0,0,0,1.417.856,1.436,1.436,0,0,0,1.455-.87,1.619,1.619,0,0,0,1.378.87h.143v-.01h.275a1.36,1.36,0,0,0,1.543-1.376v-5.34l-1.4.265Zm-18.16,5.71a2.443,2.443,0,0,1-.018.3v.011h-1.061c-.564,0-.9-.655-.9-1.288,0-1.546.974-2.584,1.883-2.584h.1Zm4.432-1.575a5.857,5.857,0,0,0-.825-1.356,3.524,3.524,0,0,1,1.676-.479c.722,0,1.152.505,1.152,1.351a1.955,1.955,0,0,1-1.212,1.827,7.6,7.6,0,0,1-.792-1.343" transform="translate(2371.587 -1682.224)" fill="#0051AB"/>
      <path id="Path_41551" data-name="Path 41551" d="M163.9,65.453l.064.021c.437.146.437.215.437.443v5.973h.955V65.176l-1.39.265Z" transform="translate(2362.234 -1682.224)" fill="#0051AB"/>
      <path id="Path_41552" data-name="Path 41552" d="M171.864,66.354a.551.551,0,0,0,0-1.1.551.551,0,1,0,0,1.1" transform="translate(2360.118 -1682.246)" fill="#0051AB"/>
      <path id="Path_41553" data-name="Path 41553" d="M173.97,66.354a.551.551,0,1,0-.55-.55.538.538,0,0,0,.55.55" transform="translate(2359.516 -1682.246)" fill="#0051AB"/>
      <path id="Path_41554" data-name="Path 41554" d="M178.049,75.87a.545.545,0,1,0,0,1.09.545.545,0,0,0,.55-.551.54.54,0,0,0-.55-.539" transform="translate(2358.352 -1685.277)" fill="#0051AB"/>
      <path id="Path_41555" data-name="Path 41555" d="M180.155,75.87a.545.545,0,1,0,.551.539.534.534,0,0,0-.551-.539" transform="translate(2357.751 -1685.277)" fill="#0051AB"/>
      <path id="Path_41556" data-name="Path 41556" d="M181.618,67.94l-1.4.265-.068.013.066.021c.458.146.458.217.458.454v2.539c0,.645-.258.976-.766.986h-.941c-.714,0-1.153-.927-1.153-1.592V67.94l-1.4.265-.064.012.063.021c.419.147.447.188.447.4v2.624c0,.642-.25.954-.765.954h-1.463c-.435-.036-.527-.465-.527-.818V68.693a3.419,3.419,0,0,1,.072-.759l0-.021h-.552l0,0a.2.2,0,0,0-.066.126.247.247,0,0,1-.01.038,1.232,1.232,0,0,1-.1.245l-.167-.108-.006,0a2.168,2.168,0,0,0-1.237-.417,2.273,2.273,0,0,0-2.159,2.4,2.237,2.237,0,0,0,1.94,2.441,1.609,1.609,0,0,0,1.5-1.015c.039.917.667,1.005,1.311,1.015h1.651a1.56,1.56,0,0,0,1.55-.8,1.6,1.6,0,0,0,1.3.8h.951a1.354,1.354,0,0,0,1.533-1.375Zm-8.551,3.381a1.214,1.214,0,0,1-1.112.928c-.4,0-1.09-.419-1.09-1.988,0-1.522.632-2.062,1.174-2.062a.951.951,0,0,1,.956.6,3.323,3.323,0,0,1,.186,1.266,4.587,4.587,0,0,1-.114,1.259" transform="translate(2360.527 -1682.972)" fill="#0051AB"/>
      <path id="Path_41557" data-name="Path 41557" d="M184.32,75.841a.556.556,0,1,0,.561.561.555.555,0,0,0-.561-.561" transform="translate(2356.565 -1685.269)" fill="#0051AB"/>
      <path id="Path_41558" data-name="Path 41558" d="M197.886,65.453l.065.021c.447.142.447.206.447.443v4.566c0,.654-.272.986-.807.986h-2.738a.834.834,0,0,1-.585-.157c1.01-.547,1.941-1.19,1.941-2.166,0-1.134-.877-1.867-2.233-1.867a4.914,4.914,0,0,0-2.381.786.884.884,0,0,0-.106.072l-.031.023-.018.012.015.015c.026.026.109.141.183.242l.084.112a8.229,8.229,0,0,1,.66.957,7.372,7.372,0,0,0,1.044,1.764,2.866,2.866,0,0,1-.987.207h-3.02a9.962,9.962,0,0,0,.112-1.655V67.191l-1.479.278.066.021c.457.145.457.216.457.454V70.6c-.065,1.542-.479,2.6-2.338,3.1l-.1.026.1.009c.341.027.594.041.754.041a2.185,2.185,0,0,0,2.344-1.881h3.351a2.063,2.063,0,0,0,1.113-.267l.01,0a1.862,1.862,0,0,0,1.187.262h2.811a1.361,1.361,0,0,0,1.544-1.376v-5.34l-1.4.265Zm-4.752,4.135a5.868,5.868,0,0,0-.825-1.356,3.529,3.529,0,0,1,1.677-.479c.722,0,1.152.505,1.152,1.351a1.954,1.954,0,0,1-1.213,1.827,7.279,7.279,0,0,1-.792-1.343" transform="translate(2355.885 -1682.224)" fill="#0051AB"/>
      <path id="Path_41559" data-name="Path 41559" d="M205.828,65.453l.064.021c.437.146.437.215.437.443v5.973h.955V65.176l-1.39.265Z" transform="translate(2350.264 -1682.224)" fill="#0051AB"/>
      <path id="Path_41560" data-name="Path 41560" d="M213.792,66.354a.551.551,0,0,0,0-1.1.551.551,0,0,0,0,1.1" transform="translate(2348.148 -1682.246)" fill="#0051AB"/>
      <path id="Path_41561" data-name="Path 41561" d="M215.9,66.354a.551.551,0,1,0-.55-.55.538.538,0,0,0,.55.55" transform="translate(2347.546 -1682.246)" fill="#0051AB"/>
      <path id="Path_41562" data-name="Path 41562" d="M241.057,65.357c.468.146.468.214.468.443v4.576a1.136,1.136,0,0,1-.242.789c-.007.007-.016.012-.023.019a.612.612,0,0,1-.274.149c-.012,0-.025,0-.037.008a.914.914,0,0,1-.19.021h-.8c-.489,0-.834-.472-1-.915a2.136,2.136,0,0,0,.031-.374,2.576,2.576,0,0,0-.5-1.49,1.789,1.789,0,0,0-1.46-.764c-1.563,0-1.818.989-2.066,1.946a3.341,3.341,0,0,1-.61,1.443.857.857,0,0,1-.364.148l-.022,0h-.679c-.489,0-.835-.472-1-.915a2.079,2.079,0,0,0,.031-.374,2.577,2.577,0,0,0-.5-1.49,1.79,1.79,0,0,0-1.46-.764c-1.563,0-1.818.989-2.065,1.946a3.342,3.342,0,0,1-.611,1.443.855.855,0,0,1-.365.148l-.021,0h-.637c-.71,0-1.163-.943-1.163-1.592V65.047l-1.39.266-.064.011.061.022c.42.147.447.187.447.4v4.66c0,.634-.257.955-.766.955h-2.209v-1.78a2.387,2.387,0,0,0-2.12-2.139c1.019-.318,2.464-1.092,2.517-1.642v-.007l-.7-.956-.028-.039,0,.047c-.081,1.084-2.065,2.5-2.751,2.5h-.261l-.262.4h.993a1.442,1.442,0,0,1,1.242.643,2.239,2.239,0,0,1,.36,1.22v1.748h-4c-.436-.037-.527-.465-.527-.819V67.837a3.43,3.43,0,0,1,.072-.76l0-.021h-.552l-.005,0a.2.2,0,0,0-.066.126.184.184,0,0,1-.011.038,1.208,1.208,0,0,1-.1.245c-.022-.014-.079-.053-.167-.108l-.006,0a2.168,2.168,0,0,0-1.237-.417,2.273,2.273,0,0,0-2.16,2.4,2.237,2.237,0,0,0,1.941,2.442,1.609,1.609,0,0,0,1.5-1.015c.038.917.667,1.005,1.311,1.015h7.42a1.951,1.951,0,0,0,1.112-.294l.025-.019a1.158,1.158,0,0,0,.289-.293l.016-.025a1.14,1.14,0,0,0,.109-.165,1.61,1.61,0,0,0,1.313.8h.449a1.375,1.375,0,0,0,1.1-.429,1.987,1.987,0,0,0,1.7.879,2.493,2.493,0,0,0,.316-.038l.079-.009a2.334,2.334,0,0,0,.511-.136c.036-.014.073-.028.107-.044a1.963,1.963,0,0,0,.4-.247c.027-.021.055-.041.081-.064a1.924,1.924,0,0,0,.294-.332c.022-.032.046-.063.066-.1a1.953,1.953,0,0,0,.116-.168,1.648,1.648,0,0,0,1.438.685h.46a1.371,1.371,0,0,0,1.1-.429,1.994,1.994,0,0,0,1.7.879,2.507,2.507,0,0,0,.316-.038l.078-.009a2.255,2.255,0,0,0,.516-.139c.034-.014.069-.026.1-.041a1.952,1.952,0,0,0,.406-.252c.024-.019.05-.038.074-.058a1.941,1.941,0,0,0,.3-.339c.021-.029.042-.058.061-.088a2.04,2.04,0,0,0,.117-.17,1.646,1.646,0,0,0,1.438.685h.762a1.361,1.361,0,0,0,1.544-1.376v-5.35l-1.48.279ZM215,70.465a1.214,1.214,0,0,1-1.112.928c-.4,0-1.09-.419-1.09-1.989,0-1.521.632-2.061,1.174-2.061a.95.95,0,0,1,.955.6,3.309,3.309,0,0,1,.187,1.266A4.584,4.584,0,0,1,215,70.465m15.126,1.367a1.95,1.95,0,0,1-1.374-.857.186.186,0,0,0-.045-.061,4.713,4.713,0,0,0,.359-1.025l.021-.081.022-.064c.2-.764.4-1.554,1.069-1.554h.041c.767.031,1.11,1,1.11,1.936,0,.925-.552,1.707-1.2,1.707m6.668,0a1.95,1.95,0,0,1-1.375-.859.191.191,0,0,0-.044-.059,4.815,4.815,0,0,0,.362-1.037l.019-.07.021-.064c.2-.764.4-1.554,1.07-1.554h.041c.767.031,1.112,1,1.112,1.936,0,.925-.552,1.707-1.2,1.707" transform="translate(2348.557 -1682.116)" fill="#0051AB"/>
      <path id="Path_41563" data-name="Path 41563" d="M255.982,65.44l-.066.012.064.021c.437.146.437.215.437.443v5.974h.955V65.175Z" transform="translate(2335.965 -1682.224)" fill="#0051AB"/>
      <path id="Path_41564" data-name="Path 41564" d="M114.66,48.83l-2.718-5.416h-.019V48.83h-.877V42.18h1.175l2.641,5.262h.02V42.18h.877v6.65Z" transform="translate(2377.323 -1675.659)" fill="#0051AB"/>
      <path id="Path_41565" data-name="Path 41565" d="M122.2,49.612v-.636h-.019a1.48,1.48,0,0,1-1.292.742,1.187,1.187,0,0,1-1.253-1.146c0-1.292,1.591-1.465,2.564-1.513v-.405c0-.462.01-1.33-.645-1.33-.617,0-.713.5-.742,1H119.8c.076-1.07.742-1.407,1.763-1.407,1.272,0,1.619.559,1.619,1.735v2.959Zm0-2.149c-.6.039-1.5.193-1.5.964a.61.61,0,0,0,.559.684.8.8,0,0,0,.366-.1A1.1,1.1,0,0,0,122.2,48Z" transform="translate(2374.87 -1676.44)" fill="#0051AB"/>
      <path id="Path_41566" data-name="Path 41566" d="M127.984,44.9v2.64c0,.56.009,1,.694,1a1.207,1.207,0,0,0,.452-.078v.559a2.661,2.661,0,0,1-.674.067c-.839,0-1.445-.221-1.445-1.166V44.9h-.733v-.5h.733v-1.08l.973-.588V44.4h1.253v.5Z" transform="translate(2372.975 -1675.817)" fill="#0051AB"/>
      <path id="Path_41567" data-name="Path 41567" d="M131.986,42.18h1.051v.964h-1.051Zm.038,2.063H133V48.83h-.973Z" transform="translate(2371.345 -1675.659)" fill="#0051AB"/>
      <path id="Path_41568" data-name="Path 41568" d="M137.383,49.718c-1.494,0-2.024-1.041-2.024-2.4s.53-2.4,2.024-2.4,2.034,1.031,2.034,2.4-.539,2.4-2.034,2.4m0-4.394c-.915,0-.964,1.34-.964,1.995s.049,1.995.964,1.995.973-1.34.973-1.995-.048-1.995-.973-1.995" transform="translate(2370.382 -1676.441)" fill="#0051AB"/>
      <path id="Path_41569" data-name="Path 41569" d="M145.7,49.612V46.74c0-.4-.019-1.1-.579-1.1-.905,0-1.233,1.359-1.233,2.072v1.9h-.973V45.025h.973v1.089h.019a1.771,1.771,0,0,1,1.609-1.195,1.191,1.191,0,0,1,1.157,1.34v3.353Z" transform="translate(2368.225 -1676.441)" fill="#0051AB"/>
      <path id="Path_41570" data-name="Path 41570" d="M152.656,49.612v-.636h-.019a1.481,1.481,0,0,1-1.292.742,1.187,1.187,0,0,1-1.253-1.146c0-1.292,1.591-1.465,2.564-1.513v-.405c0-.462.01-1.33-.645-1.33-.617,0-.713.5-.742,1h-1.022c.077-1.07.742-1.407,1.764-1.407,1.272,0,1.618.559,1.618,1.735v2.959Zm0-2.149c-.6.039-1.5.193-1.5.964a.61.61,0,0,0,.559.684.792.792,0,0,0,.365-.1A1.1,1.1,0,0,0,152.656,48Z" transform="translate(2366.176 -1676.44)" fill="#0051AB"/>
      <rect id="Rectangle_15779" data-name="Rectangle 15779" width="0.973" height="6.65" transform="translate(2521.503 -1633.479)" fill="#0051AB"/>
      <path id="Path_41571" data-name="Path 41571" d="M168.511,43.94c0-.685-.289-1.33-1.07-1.33-1.224,0-1.407,1.639-1.407,2.554,0,1.233.241,3.036,1.841,3.036a2.456,2.456,0,0,0,1.6-.637v.906a3.449,3.449,0,0,1-1.773.424c-2.081,0-2.794-1.735-2.794-3.557,0-1.715.654-3.305,2.621-3.305,1.215,0,2.217.6,2.217,1.908Z" transform="translate(2361.947 -1675.617)" fill="#0051AB"/>
      <path id="Path_41572" data-name="Path 41572" d="M173.625,46.8c0,1.09.511,2.41,1.783,2.41a2.149,2.149,0,0,0,.877-.193v.443a3.177,3.177,0,0,1-1.34.26c-1.59,0-2.294-1.107-2.294-2.6,0-1.311.549-2.2,1.957-2.2,1.243,0,1.763.7,1.763,1.878Zm.944-1.474c-.587,0-.877.5-.915,1.031h1.763c0-.54-.24-1.031-.848-1.031" transform="translate(2359.736 -1676.441)" fill="#0051AB"/>
      <path id="Path_41573" data-name="Path 41573" d="M182.494,49.612V46.74c0-.4-.019-1.1-.579-1.1-.906,0-1.233,1.359-1.233,2.072v1.9h-.973V45.025h.973v1.089h.019a1.771,1.771,0,0,1,1.61-1.195,1.191,1.191,0,0,1,1.156,1.34v3.353Z" transform="translate(2357.721 -1676.441)" fill="#0051AB"/>
      <path id="Path_41574" data-name="Path 41574" d="M188.389,44.9v2.64c0,.56.01,1,.694,1a1.206,1.206,0,0,0,.452-.078v.559a2.663,2.663,0,0,1-.674.067c-.838,0-1.445-.221-1.445-1.166V44.9h-.732v-.5h.732v-1.08l.974-.588V44.4h1.253v.5Z" transform="translate(2355.73 -1675.817)" fill="#0051AB"/>
      <path id="Path_41575" data-name="Path 41575" d="M192.878,46.8c0,1.09.511,2.41,1.783,2.41a2.151,2.151,0,0,0,.877-.193v.443a3.179,3.179,0,0,1-1.34.26c-1.59,0-2.294-1.107-2.294-2.6,0-1.311.549-2.2,1.957-2.2,1.243,0,1.763.7,1.763,1.878Zm.945-1.474c-.587,0-.877.5-.915,1.031h1.763c0-.54-.241-1.031-.848-1.031" transform="translate(2354.239 -1676.441)" fill="#0051AB"/>
      <path id="Path_41576" data-name="Path 41576" d="M199.934,47.51v2.1h-.973V45.024h.973V46.19h.019c.328-.664.675-1.2,1.484-1.272V45.93c-1.079.029-1.5.492-1.5,1.581" transform="translate(2352.225 -1676.44)" fill="#0051AB"/>
      <path id="Path_41577" data-name="Path 41577" d="M210.149,42.591c-1,0-.887.887-.887,1.61h1.3v.5h-1.3v4.086h-.973V44.7h-.8v-.5h.8v-.434c0-1.205.511-1.735,1.745-1.735a4.677,4.677,0,0,1,.973.106V42.8a2.044,2.044,0,0,0-.857-.212" transform="translate(2349.79 -1675.617)" fill="#0051AB"/>
      <path id="Path_41578" data-name="Path 41578" d="M214.828,49.718c-1.494,0-2.024-1.041-2.024-2.4s.53-2.4,2.024-2.4,2.034,1.031,2.034,2.4-.54,2.4-2.034,2.4m0-4.394c-.915,0-.964,1.34-.964,1.995s.049,1.995.964,1.995.973-1.34.973-1.995-.048-1.995-.973-1.995" transform="translate(2348.273 -1676.441)" fill="#0051AB"/>
      <path id="Path_41579" data-name="Path 41579" d="M221.333,47.51v2.1h-.972V45.024h.972V46.19h.019c.328-.664.675-1.2,1.484-1.272V45.93c-1.079.029-1.5.492-1.5,1.581" transform="translate(2346.115 -1676.44)" fill="#0051AB"/>
      <path id="Path_41580" data-name="Path 41580" d="M235.158,48.83V43.086h-.019l-1.947,5.744h-.81l-1.947-5.744h-.019V48.83h-.8V42.18h1.418l1.841,5.407h.019l1.851-5.407h1.368v6.65Z" transform="translate(2343.473 -1675.659)" fill="#0051AB"/>
      <path id="Path_41581" data-name="Path 41581" d="M241.626,46.8c0,1.09.511,2.41,1.783,2.41a2.145,2.145,0,0,0,.876-.193v.443a3.175,3.175,0,0,1-1.34.26c-1.589,0-2.294-1.107-2.294-2.6,0-1.311.549-2.2,1.957-2.2,1.243,0,1.763.7,1.763,1.878Zm.945-1.474c-.588,0-.877.5-.915,1.031h1.763c0-.54-.241-1.031-.848-1.031" transform="translate(2340.323 -1676.441)" fill="#0051AB"/>
      <path id="Path_41582" data-name="Path 41582" d="M248.795,44.9v2.64c0,.56.01,1,.694,1a1.209,1.209,0,0,0,.452-.078v.559a2.667,2.667,0,0,1-.675.067c-.838,0-1.445-.221-1.445-1.166V44.9h-.732v-.5h.732v-1.08l.973-.588V44.4h1.253v.5Z" transform="translate(2338.485 -1675.817)" fill="#0051AB"/>
      <path id="Path_41583" data-name="Path 41583" d="M253.283,46.8c0,1.09.511,2.41,1.783,2.41a2.152,2.152,0,0,0,.877-.193v.443a3.181,3.181,0,0,1-1.34.26c-1.591,0-2.294-1.107-2.294-2.6,0-1.311.55-2.2,1.957-2.2,1.243,0,1.763.7,1.763,1.878Zm.945-1.474c-.588,0-.877.5-.915,1.031h1.763c0-.54-.241-1.031-.848-1.031" transform="translate(2336.995 -1676.441)" fill="#0051AB"/>
      <path id="Path_41584" data-name="Path 41584" d="M260.931,49.718c-1.494,0-2.024-1.041-2.024-2.4s.53-2.4,2.024-2.4,2.033,1.031,2.033,2.4-.539,2.4-2.033,2.4m0-4.394c-.915,0-.964,1.34-.964,1.995s.049,1.995.964,1.995.973-1.34.973-1.995-.048-1.995-.973-1.995" transform="translate(2335.111 -1676.441)" fill="#0051AB"/>
      <path id="Path_41585" data-name="Path 41585" d="M267.436,47.51v2.1h-.973V45.024h.973V46.19h.019c.328-.664.675-1.2,1.484-1.272V45.93c-1.079.029-1.5.492-1.5,1.581" transform="translate(2332.954 -1676.44)" fill="#0051AB"/>
      <path id="Path_41586" data-name="Path 41586" d="M272.858,49.718c-1.493,0-2.024-1.041-2.024-2.4s.53-2.4,2.024-2.4,2.034,1.031,2.034,2.4-.54,2.4-2.034,2.4m0-4.394c-.915,0-.964,1.34-.964,1.995s.049,1.995.964,1.995.974-1.34.974-1.995-.049-1.995-.974-1.995" transform="translate(2331.706 -1676.441)" fill="#0051AB"/>
      <rect id="Rectangle_15780" data-name="Rectangle 15780" width="0.973" height="6.65" transform="translate(2607.987 -1633.479)" fill="#0051AB"/>
      <path id="Path_41587" data-name="Path 41587" d="M283.8,49.718c-1.494,0-2.024-1.041-2.024-2.4s.53-2.4,2.024-2.4,2.034,1.031,2.034,2.4-.539,2.4-2.034,2.4m0-4.394c-.915,0-.964,1.34-.964,1.995s.049,1.995.964,1.995.973-1.34.973-1.995-.047-1.995-.973-1.995" transform="translate(2328.582 -1676.441)" fill="#0051AB"/>
      <path id="Path_41588" data-name="Path 41588" d="M290.522,51.78a5.067,5.067,0,0,1-1.32-.183v-.955a2.854,2.854,0,0,0,1.474.559c1.3,0,1.137-1.292,1.137-2.226h-.019a1.251,1.251,0,0,1-1.2.636c-1.349,0-1.725-1.2-1.725-2.341,0-1.176.328-2.351,1.725-2.351a1.252,1.252,0,0,1,1.2.857h.019v-.752h.974v4.453c0,1.561-.656,2.3-2.264,2.3m.337-6.245c-.829,0-.925,1.128-.925,1.735s.087,1.783.925,1.783c.887,0,.926-1.09.926-1.735,0-.627-.068-1.783-.926-1.783" transform="translate(2326.556 -1676.441)" fill="#0051AB"/>
      <path id="Path_41589" data-name="Path 41589" d="M297.584,51.716h-.78l.674-2.014-1.763-4.636h1.012l1.2,3.277h.019l1.079-3.277h.916Z" transform="translate(2324.603 -1676.483)" fill="#0051AB"/>
      <path id="Path_41590" data-name="Path 41590" d="M116.663,27.873h-5.618l.806-1.16h3.482V24.024c0-.92-.5-1.387-1.472-1.387a2.13,2.13,0,0,0-1.911,1.231V22.34a2.94,2.94,0,0,1,1.911-.835,3.03,3.03,0,0,1,2.024.665,2.161,2.161,0,0,1,.778,1.755Z" transform="translate(2377.323 -1669.756)" fill="#0051AB"/>
      <path id="Path_41591" data-name="Path 41591" d="M124.473,26.771h-1.5a1.707,1.707,0,0,1-1.868-1.826V18.068l1.345-.425V24.9a.6.6,0,0,0,.693.679h1.33Z" transform="translate(2374.452 -1668.654)" fill="#0051AB"/>
      <path id="Path_41592" data-name="Path 41592" d="M136.682,27.9H125.361V26.706h1.671v-3.58l1.344-.382v3.028a6.492,6.492,0,0,1,.934-2.094A4.338,4.338,0,0,1,133,21.584a3.313,3.313,0,0,1,3.113,1.627,5.455,5.455,0,0,1,.652,2.887c0-.156-.029.438-.086,1.8m-1.288-1.189a5.476,5.476,0,0,0,.043-.693,4.11,4.11,0,0,0-.525-2.179,2.1,2.1,0,0,0-1.881-1.019,3.6,3.6,0,0,0-2.745,1.443,4.138,4.138,0,0,0-1.2,2.448Z" transform="translate(2373.237 -1669.778)" fill="#0051AB"/>
      <path id="Path_41593" data-name="Path 41593" d="M147.53,27.444a3.062,3.062,0,0,1-.863,2.279,3.1,3.1,0,0,1-2.321.863,2.786,2.786,0,0,1-1.514-.382l-.637-1.33a4.331,4.331,0,0,0,2.151.537,1.741,1.741,0,0,0,1.839-1.924v-5.6l1.345-.4Z" transform="translate(2368.431 -1669.751)" fill="#0051AB"/>
      <path id="Path_41594" data-name="Path 41594" d="M160.9,25.969h-1.047a2.589,2.589,0,0,1-1.967-.751,2.666,2.666,0,0,1-2.009.751h-4.019l.622-1.189h1.43V17.817l1.344-.4V24.78h.538a1.243,1.243,0,0,0,1.4-1.416V17.138c.212-.042.665-.156,1.33-.326v6.595c0,.92.467,1.373,1.415,1.373h.962Zm-5.462-9.4H153.1l.3-.482h.4v-.282c0-.652.3-.977.906-.977a.9.9,0,0,1,.651.3l-.311.4a.45.45,0,0,0-.382-.214c-.227,0-.34.171-.34.5v.282h1.118Z" transform="translate(2365.672 -1667.851)" fill="#0051AB"/>
      <path id="Path_41595" data-name="Path 41595" d="M167.443,24.278a2.433,2.433,0,0,1-.722,1.8,2.677,2.677,0,0,1-1.939.707h-.905V25.594h.835c.92,0,1.387-.481,1.387-1.443V18.08l1.345-.4Z" transform="translate(2362.241 -1668.666)" fill="#0051AB"/>
      <path id="Path_41596" data-name="Path 41596" d="M183.909,28.665a2.19,2.19,0,0,1-.962,2.067,4.292,4.292,0,0,1-2.518.65,3.666,3.666,0,0,1-2.831-1.047,3.523,3.523,0,0,1-.849-2.491,6.734,6.734,0,0,1,.566-2.632l1.543-.935a8.25,8.25,0,0,0-.835,3.312c0,1.628.835,2.589,2.407,2.575a4.026,4.026,0,0,0,1.457-.184,1.408,1.408,0,0,0,.935-1.316,1.876,1.876,0,0,1-1.741-1.075l.623-1.274c.354.892.722,1.19,1.627,1.19h.58Zm-3.721,4.571a.74.74,0,0,1-.736.735.729.729,0,1,1,0-1.458.737.737,0,0,1,.736.722m1.91,0a.749.749,0,0,1-.735.735.729.729,0,1,1,.735-.735" transform="translate(2358.566 -1670.548)" fill="#0051AB"/>
      <path id="Path_41597" data-name="Path 41597" d="M192.375,26.783h-.85a2.616,2.616,0,0,1-1.967-.75,2.666,2.666,0,0,1-2.009.75h-1.018v-1.16h.933a1.262,1.262,0,0,0,1.415-1.444V20.8l1.33-.4v3.821a1.238,1.238,0,0,0,1.4,1.4h.764ZM190.238,18.4a.736.736,0,1,1-1.471,0,.736.736,0,0,1,1.471,0" transform="translate(2355.773 -1668.666)" fill="#0051AB"/>
      <path id="Path_41598" data-name="Path 41598" d="M204.768,26.873H194.154V25.684h1.741V18.411L197.239,18v4.84a4.425,4.425,0,0,1,3.849-2.279,3.313,3.313,0,0,1,3.113,1.627,5.341,5.341,0,0,1,.623,2.732c0,.212-.014.537-.029.977s-.028.765-.028.976m-1.26-1.189c.014-.212.029-.424.029-.637a4.693,4.693,0,0,0-.552-2.321,2.3,2.3,0,0,0-1.811-.948,3.336,3.336,0,0,0-2.66,1.373,5.858,5.858,0,0,0-1.331,2.532Z" transform="translate(2353.597 -1668.756)" fill="#0051AB"/>
      <path id="Path_41599" data-name="Path 41599" d="M218.318,27.941h-1.671a3.337,3.337,0,0,1-.92,1.9,2.73,2.73,0,0,1-2.052.821,3.116,3.116,0,0,1-1.655-.368l-.594-1.3a4.974,4.974,0,0,0,2.222.5,1.72,1.72,0,0,0,1.656-1.543h-1.1a2.908,2.908,0,0,1-2.194-.849,2.846,2.846,0,0,1-.722-2.038,3.829,3.829,0,0,1,.622-2.264,2.533,2.533,0,0,1,2.194-1.047c1.8,0,2.7,1.1,2.7,3.312,0,.439-.015,1.019-.029,1.726h1.543Zm-2.859-2.887a3.883,3.883,0,0,0-.184-1.429,1.16,1.16,0,0,0-1.175-.708c-.976,0-1.472.708-1.472,2.137,0,1.146.524,1.726,1.571,1.726h1.245Z" transform="translate(2348.707 -1669.824)" fill="#0051AB"/>
      <path id="Path_41600" data-name="Path 41600" d="M224.215,24.278a2.431,2.431,0,0,1-.722,1.8,2.674,2.674,0,0,1-1.939.707h-.905V25.594h.835c.92,0,1.387-.481,1.387-1.443V18.08l1.344-.4Z" transform="translate(2346.033 -1668.666)" fill="#0051AB"/>
      <path id="Path_41601" data-name="Path 41601" d="M229.182,26.771h-1.344v-8.7l1.344-.425Z" transform="translate(2343.98 -1668.654)" fill="#0051AB"/>
      <path id="Path_41602" data-name="Path 41602" d="M243.465,26.772h-2.009a2.943,2.943,0,0,1-3.17,2.717,2.786,2.786,0,0,1-1.514-.382l-.637-1.33a4.331,4.331,0,0,0,2.151.537,1.741,1.741,0,0,0,1.839-1.924v-5.6l1.345-.4v5.193h2Zm-2.038-8.378a.738.738,0,0,1-.722.737.743.743,0,0,1,0-1.486.74.74,0,0,1,.722.75" transform="translate(2341.612 -1668.654)" fill="#0051AB"/>
      <path id="Path_41603" data-name="Path 41603" d="M253.94,26.782h-8.024v-1.16h6.651a10.6,10.6,0,0,0-.056-1.543,2.348,2.348,0,0,0-.679-1.373,2.663,2.663,0,0,0-1.9-.68,3.115,3.115,0,0,0-2.476,1.1l-.92-.863,4.4-4.585h1.755L249.639,20.9a4.547,4.547,0,0,1,.622-.043,3.561,3.561,0,0,1,2.462.892,3.516,3.516,0,0,1,1.175,2.335c.029.2.042,1.1.042,2.7" transform="translate(2338.82 -1668.665)" fill="#0051AB"/>
      <path id="Path_41604" data-name="Path 41604" d="M265.208,27.868H263.2a2.943,2.943,0,0,1-3.17,2.717,2.792,2.792,0,0,1-1.514-.382l-.637-1.33a4.331,4.331,0,0,0,2.151.537,1.741,1.741,0,0,0,1.84-1.925v-5.6l1.344-.4v5.194h2Z" transform="translate(2335.405 -1669.751)" fill="#0051AB"/>
      <path id="Path_41605" data-name="Path 41605" d="M277.338,28.412h-.184a2.3,2.3,0,0,1-1.938-.892,2.662,2.662,0,0,1-2.745,1.883,2.7,2.7,0,0,1-2.7-1.7,2.208,2.208,0,0,1-1.755.708h-.452v-1.19h.367a1.469,1.469,0,0,0,1.685-1.358,2.59,2.59,0,0,1,2.859-2.476,2.9,2.9,0,0,1,2.052.637,3.1,3.1,0,0,1,.792,1.839,1.555,1.555,0,0,0,1.741,1.388l.282-.029Zm-3.382-2.024c0-1.26-.5-1.883-1.485-1.883-1.005,0-1.5.622-1.5,1.883s.5,1.882,1.5,1.882c.99,0,1.485-.623,1.485-1.882" transform="translate(2332.641 -1670.294)" fill="#0051AB"/>
      <path id="Path_41606" data-name="Path 41606" d="M284.393,24.278a2.431,2.431,0,0,1-.722,1.8,2.674,2.674,0,0,1-1.938.707h-.905V25.594h.835c.92,0,1.387-.481,1.387-1.443V18.08l1.344-.4Z" transform="translate(2328.853 -1668.666)" fill="#0051AB"/>
      <path id="Path_41607" data-name="Path 41607" d="M289.36,26.771h-1.344v-8.7l1.344-.425Z" transform="translate(2326.801 -1668.654)" fill="#0051AB"/>
    </g>
    <g id="Group_118408" data-name="Group 118408">
      <path id="Path_41608" data-name="Path 41608" d="M32.5,0A32.5,32.5,0,1,0,65,32.5,32.5,32.5,0,0,0,32.5,0m.036,63.119A30.62,30.62,0,1,1,63.154,32.5a30.62,30.62,0,0,1-30.62,30.62" transform="translate(2409.025 -1663.617)" fill="#0051AB"/>
      <path id="Path_41609" data-name="Path 41609" d="M33.539,63.443A29.908,29.908,0,1,1,63.448,33.535,29.942,29.942,0,0,1,33.539,63.443m0-58.779A28.871,28.871,0,1,0,62.409,33.535,28.9,28.9,0,0,0,33.539,4.664" transform="translate(2407.989 -1664.652)" fill="#0051AB"/>
      <path id="Path_41610" data-name="Path 41610" d="M20.814,22.758c4.385-4.4,7.2-5.187,10.707-5.735-3.591,2.279-6.946,7.58-5.9,11.311,1.9-3.958,5.207-7.827,8.259-9.237a6.948,6.948,0,0,0-.12,8.01c.385-3.34,2.726-6.55,4.681-8.7,1.956,2.15,4.3,5.36,4.681,8.7A6.946,6.946,0,0,0,43,19.1c3.052,1.41,6.363,5.278,8.26,9.237,1.046-3.731-2.309-9.031-5.9-11.311,3.506.549,6.321,1.332,10.707,5.735-1.447-5.891-6.541-7.932-10.614-8.661,4.482-.384,5.372.071,9.329,1.71-4.3-4.224-7.311-4.986-11.616-4.574A5.7,5.7,0,0,1,45.7,9.955c-1.806-.711-4.631-.337-5.73.715a4.018,4.018,0,0,0-1.512-2.715V7.936l-.014.009-.014-.009v.019a4.018,4.018,0,0,0-1.512,2.715c-1.1-1.052-3.923-1.425-5.73-.715a5.694,5.694,0,0,1,2.528,1.278c-4.3-.412-7.317.35-11.616,4.574,3.958-1.638,4.848-2.094,9.33-1.71-4.073.729-9.167,2.769-10.614,8.661" transform="translate(2403.083 -1665.883)" fill="#0051AB"/>
      <path id="Path_41611" data-name="Path 41611" d="M57.743,64.29a74.255,74.255,0,0,0-20.414,4.962A74.255,74.255,0,0,0,16.914,64.29a53.09,53.09,0,0,1,17.333,6.3,57.65,57.65,0,0,0-6.07,3.245s1.408,2.385,3.129,2.982a53.158,53.158,0,0,1,6.023-4.383,53.074,53.074,0,0,1,6.023,4.383c1.721-.6,3.129-2.982,3.129-2.982a57.578,57.578,0,0,0-6.07-3.245,53.1,53.1,0,0,1,17.333-6.3" transform="translate(2404.197 -1681.971)" fill="#0051AB"/>
      <path id="Path_41612" data-name="Path 41612" d="M28.933,61.577a71.639,71.639,0,0,1,11.714,3.257,70.611,70.611,0,0,1,11.7-3.272c-.284-.738-.815-2.014-3.668-2.014a7.165,7.165,0,0,0-2.768.756,3.594,3.594,0,0,1,3.594-2.2,5.1,5.1,0,0,0-5.422-4.466,5.93,5.93,0,0,0-4.5,2.166,3.313,3.313,0,0,1,.761,1.873,5.517,5.517,0,0,0-3.322-1.58,3.446,3.446,0,0,0-3.533,2.587c1.324,0,2.042,1.669,2.042,1.669A6.539,6.539,0,0,0,32.4,59.5c-2.073.08-3.057.986-3.47,2.081" transform="translate(2400.765 -1678.931)" fill="#0051AB"/>
      <path id="Path_41613" data-name="Path 41613" d="M37.751,50.7a4.277,4.277,0,0,1,2.907-.089,7.191,7.191,0,0,1,5.835-2.684,7.57,7.57,0,0,1,2.47.4A6.864,6.864,0,1,0,37.751,50.7" transform="translate(2398.831 -1674.736)" fill="#0051AB"/>
      <path id="Path_41614" data-name="Path 41614" d="M45.839,33.548l-.38-8.326a.3.3,0,0,0-.594,0l-.379,8.291c.143-.007.284-.021.429-.021a8.192,8.192,0,0,1,.923.056" transform="translate(2396.325 -1670.736)" fill="#0051AB"/>
      <path id="Path_41615" data-name="Path 41615" d="M61.172,47.481,56.7,47.106a8.216,8.216,0,0,1,.045.853c0,.165-.014.327-.024.489l4.454-.373a.3.3,0,0,0,0-.594" transform="translate(2392.839 -1677.065)" fill="#0051AB"/>
      <path id="Path_41616" data-name="Path 41616" d="M32.115,47.1l-4.549.381a.3.3,0,0,0,0,.594l4.529.379c-.01-.165-.025-.329-.025-.5a8.12,8.12,0,0,1,.046-.859" transform="translate(2401.238 -1677.063)" fill="#0051AB"/>
      <path id="Path_41617" data-name="Path 41617" d="M36.509,38.264l-3.57-3.019a.3.3,0,0,0-.42.42l3.012,3.563a8.153,8.153,0,0,1,.979-.964" transform="translate(2399.766 -1673.655)" fill="#0051AB"/>
      <path id="Path_41618" data-name="Path 41618" d="M53.53,39.186l2.977-3.52a.3.3,0,0,0-.42-.42l-3.536,2.99a8.212,8.212,0,0,1,.98.951" transform="translate(2394.023 -1673.655)" fill="#0051AB"/>
      <path id="Path_41619" data-name="Path 41619" d="M57.679,42.882a.3.3,0,0,0-.224-.55l-2.037.429a8.083,8.083,0,0,1,.514,1.2Z" transform="translate(2393.204 -1675.696)" fill="#0051AB"/>
      <path id="Path_41620" data-name="Path 41620" d="M31.706,52.712a.3.3,0,0,0,.224.55l2.154-.544a8.066,8.066,0,0,1-.466-1.2Z" transform="translate(2400.024 -1678.323)" fill="#0051AB"/>
      <path id="Path_41621" data-name="Path 41621" d="M55.94,52.263l1.818.958c.357.134.388-.2.042-.36l-1.674-1.092c-.053.165-.186.494-.186.494" transform="translate(2393.055 -1678.396)" fill="#0051AB"/>
      <path id="Path_41622" data-name="Path 41622" d="M31.977,42.228a.3.3,0,0,0-.23.548l1.981,1.181a8.127,8.127,0,0,1,.517-1.209Z" transform="translate(2400.012 -1675.666)" fill="#0051AB"/>
      <path id="Path_41623" data-name="Path 41623" d="M40,34.742a.3.3,0,0,0-.552.22l.531,2.174a8.108,8.108,0,0,1,1.19-.5Z" transform="translate(2397.77 -1673.484)" fill="#0051AB"/>
      <path id="Path_41624" data-name="Path 41624" d="M51.031,34.962a.3.3,0,0,0-.552-.22l-1.227,1.994a8.064,8.064,0,0,1,1.211.552Z" transform="translate(2394.965 -1673.484)" fill="#0051AB"/>
    </g>
  </g>
</svg>
